<?xml version="1.0" standalone="no"?>
<!DOCTYPE svg PUBLIC "-//W3C//DTD SVG 20010904//EN"
 "http://www.w3.org/TR/2001/REC-SVG-20010904/DTD/svg10.dtd">
<svg version="1.0" xmlns="http://www.w3.org/2000/svg"
 width="800.000000pt" height="800.000000pt" viewBox="0 0 800.000000 800.000000"
 preserveAspectRatio="xMidYMid meet">

<g transform="translate(0.000000,800.000000) scale(0.100000,-0.100000)"
fill="#000000" stroke="none">
<path d="M3710 7849 c-955 -65 -1849 -483 -2523 -1178 -587 -606 -953 -1375
-1063 -2231 -22 -172 -30 -569 -15 -756 42 -530 185 -1029 426 -1491 191 -364
399 -648 695 -944 277 -277 511 -458 834 -643 927 -532 2073 -650 3099 -320
1369 442 2398 1627 2636 3039 69 409 70 880 2 1298 -88 540 -320 1109 -638
1566 -190 272 -516 620 -768 821 -153 121 -391 280 -561 374 -634 350 -1389
515 -2124 465z m320 -259 c15 0 42 -3 59 -6 l32 -7 -41 -42 -42 -43 11 -51
c16 -74 16 -74 -41 -45 l-52 26 -45 -23 c-25 -13 -50 -25 -55 -28 -5 -2 -6 22
-2 56 l7 60 -45 41 -44 41 29 5 c16 3 43 9 60 12 24 5 35 16 57 60 l26 54 29
-55 c25 -46 34 -55 57 -55z m790 -49 c11 -46 15 -50 58 -66 26 -10 51 -21 55
-25 4 -3 -15 -21 -43 -38 l-50 -31 0 -62 0 -61 -48 40 -47 40 -58 -18 c-31
-10 -57 -14 -57 -10 0 4 9 30 21 57 l21 51 -38 52 -38 53 64 -6 65 -5 33 44
c18 25 37 42 42 39 4 -3 13 -27 20 -54z m-1670 8 l33 -41 64 6 63 7 -30 -49
c-36 -58 -36 -61 -10 -112 11 -22 20 -43 20 -49 0 -5 -25 -3 -56 6 l-57 14
-42 -41 c-22 -22 -44 -37 -48 -34 -4 4 -7 31 -7 59 l0 52 -57 31 -57 30 56 25
c57 25 62 32 74 100 3 20 9 37 13 37 4 0 23 -19 41 -41z m2469 -314 c1 -36 5
-43 46 -69 25 -15 43 -31 40 -35 -4 -3 -27 -13 -53 -22 -44 -15 -48 -19 -62
-67 -9 -28 -18 -53 -21 -56 -3 -3 -21 15 -40 40 l-34 46 -57 -6 c-32 -3 -58
-2 -58 3 0 4 14 27 31 51 l31 42 -21 56 c-11 31 -19 57 -17 59 2 2 22 -4 46
-12 59 -21 70 -19 115 19 39 33 40 34 47 13 3 -12 6 -40 7 -62z m-3265 25 l42
-30 57 19 c31 11 57 17 57 14 0 -4 -7 -30 -17 -59 l-16 -52 31 -40 c31 -38 41
-63 25 -61 -5 1 -30 1 -58 0 -48 -1 -51 -3 -80 -46 -16 -24 -33 -45 -36 -45
-3 0 -13 25 -23 55 l-17 55 -59 17 -60 16 50 36 c49 36 49 36 50 94 0 31 3 57
6 57 3 0 25 -14 48 -30z m1962 -70 c105 -11 208 -29 202 -35 -6 -7 -374 -111
-558 -159 -468 -121 -1031 -235 -1565 -315 -197 -29 -216 -32 -210 -21 10 17
188 122 330 196 369 191 793 310 1225 344 134 10 434 5 576 -10z m837 -201
c127 -50 317 -140 317 -149 0 -4 -8 -10 -17 -13 -10 -3 -106 -35 -213 -72
-107 -36 -283 -92 -390 -125 -107 -32 -271 -81 -365 -110 -768 -234 -1745
-408 -2728 -485 -211 -17 -277 -19 -277 -7 0 17 253 282 273 286 12 3 130 16
262 31 995 111 1965 321 2810 611 116 39 213 72 218 73 4 0 53 -17 110 -40z
m1107 -169 c19 10 45 20 57 24 21 7 21 6 8 -51 l-14 -58 40 -40 c21 -23 39
-44 39 -48 0 -4 -13 -7 -29 -7 -69 0 -88 -10 -116 -63 l-28 -50 -28 55 c-28
55 -30 56 -79 63 -27 4 -52 11 -55 15 -3 5 13 23 36 41 l42 33 -6 64 -6 64 52
-30 c52 -30 53 -30 87 -12z m-4423 -140 l46 -35 -49 -13 c-27 -7 -54 -15 -61
-17 -6 -2 -20 -27 -30 -54 -10 -28 -21 -51 -25 -51 -3 0 -16 17 -29 38 -31 53
-46 62 -101 62 -50 0 -59 8 -33 30 9 7 25 25 35 40 18 25 18 31 5 80 -8 30
-13 56 -11 57 2 2 24 -6 50 -17 60 -25 63 -25 111 9 l40 29 3 -61 c3 -61 4
-63 49 -97z m4254 -264 c420 -368 738 -834 926 -1356 92 -254 137 -462 178
-825 33 -291 2 -690 -80 -1024 -37 -151 -103 -356 -141 -436 -12 -27 -47 -105
-77 -172 -79 -175 -253 -454 -391 -627 -76 -94 -229 -266 -238 -266 -5 0 -8
56 -8 125 l0 125 -32 0 -33 0 3 92 c2 50 -3 146 -12 212 -8 67 -18 157 -22
201 -3 44 -11 85 -16 92 -5 7 -33 19 -61 29 -29 9 -58 21 -64 27 -17 13 -16
55 2 73 10 10 13 29 9 67 -7 70 -9 73 -38 92 -21 14 -31 15 -61 5 -19 -6 -40
-20 -45 -30 -13 -24 -13 -130 0 -130 6 0 10 -18 10 -40 0 -45 -16 -60 -88 -81
-24 -7 -47 -20 -51 -28 -9 -17 -22 -162 -27 -296 -1 -45 3 -103 11 -133 8 -30
11 -60 8 -68 -3 -8 -1 -14 5 -14 6 0 11 -111 14 -299 3 -226 7 -302 17 -314 8
-11 10 -21 3 -33 -5 -9 -7 -25 -5 -34 8 -30 -13 -56 -77 -94 -66 -39 -75 -42
-64 -24 4 6 11 49 15 96 5 61 12 88 23 94 10 5 16 22 16 43 0 18 7 69 15 112
8 43 15 95 15 115 0 20 5 40 10 43 6 4 10 28 8 55 -2 26 -6 46 -10 43 -5 -2
-8 8 -8 24 0 15 -3 38 -6 51 -5 15 -2 22 9 22 18 0 30 62 17 93 -17 42 -43
176 -37 191 4 9 1 19 -6 23 -22 14 -37 52 -52 128 -15 81 -36 129 -62 144 -17
9 -16 11 4 33 13 13 28 39 34 57 11 30 9 35 -14 57 -40 37 -63 31 -86 -22 -12
-25 -19 -50 -16 -54 14 -23 -67 -134 -121 -166 -11 -6 -21 -24 -22 -40 -2 -16
-10 -33 -18 -37 -8 -4 -14 -17 -14 -27 0 -11 -27 -47 -61 -81 l-61 -62 -34 35
c-32 31 -34 37 -24 64 12 31 5 125 -11 156 -14 26 -66 50 -97 45 -56 -8 -83
-28 -103 -77 -13 -31 15 -126 41 -140 24 -13 31 -35 20 -65 -10 -25 -10 -25
-75 42 -36 37 -65 73 -65 80 0 8 -7 16 -15 19 -8 3 -20 24 -25 45 -6 21 -17
39 -24 39 -7 0 -40 26 -73 59 l-60 58 -25 -31 c-23 -29 -23 -32 -9 -59 11 -18
34 -34 69 -47 29 -11 56 -20 61 -20 19 0 40 -40 60 -114 12 -43 37 -117 56
-163 38 -91 44 -146 19 -181 -11 -15 -13 -27 -6 -35 10 -12 13 -28 31 -177 10
-83 5 -144 -19 -245 -13 -54 -12 -58 6 -51 14 5 15 1 11 -26 -3 -18 -13 -103
-23 -188 -9 -85 -18 -156 -19 -158 -1 -1 -52 11 -113 27 -61 16 -113 26 -116
23 -3 -3 -6 -22 -6 -43 0 -37 1 -38 53 -53 28 -8 74 -20 101 -27 40 -10 45
-14 30 -22 -27 -14 -44 -38 -44 -62 0 -19 -10 -24 -78 -39 -43 -9 -87 -19 -97
-22 -17 -4 -20 1 -23 39 -1 28 5 61 18 88 14 32 20 66 20 124 0 86 17 238 51
475 18 122 26 150 47 175 13 17 33 33 42 37 26 10 130 188 130 221 0 16 -14
60 -31 100 -16 40 -44 117 -60 172 -27 91 -46 125 -72 125 -5 0 -36 12 -68 26
-66 30 -81 54 -52 87 22 24 40 69 45 107 3 20 11 26 53 35 l50 10 -89 95 c-49
52 -92 95 -95 95 -3 0 -59 -18 -123 -39 l-118 -40 0 -52 c0 -28 -3 -66 -6 -83
-5 -24 -3 -31 10 -31 13 0 16 12 16 72 l0 72 30 -29 c26 -25 30 -36 30 -84 0
-41 7 -69 27 -108 35 -66 28 -75 -81 -102 -43 -11 -81 -22 -84 -25 -13 -14
-62 -180 -82 -281 -11 -60 -23 -120 -26 -133 l-5 -23 -27 23 c-16 13 -28 32
-28 43 1 17 -5 20 -38 20 -39 0 -40 1 -58 54 -14 38 -16 57 -8 66 6 7 13 36
17 64 l6 52 15 -31 c14 -28 56 -60 81 -60 24 0 43 109 51 295 5 105 11 199 15
211 5 15 19 23 53 30 43 8 47 12 50 39 4 47 -6 53 -68 45 -30 -4 -62 -4 -71 1
-9 5 -26 2 -42 -6 -27 -14 -197 -32 -197 -21 0 4 7 20 15 36 8 16 20 51 26 78
10 48 9 50 -31 110 -45 69 -57 77 -129 93 -51 11 -52 10 -102 -28 -61 -45 -89
-96 -89 -158 0 -25 -4 -45 -10 -45 -5 0 -10 -7 -10 -15 0 -8 4 -15 9 -15 5 0
14 -14 20 -30 6 -18 21 -35 38 -41 26 -10 27 -12 8 -19 -11 -5 -37 -9 -57 -9
-31 -1 -39 -5 -44 -25 -7 -31 11 -66 36 -66 17 0 16 -3 -7 -27 -28 -31 -123
-218 -123 -245 0 -9 -5 -20 -10 -23 -6 -4 -8 -15 -5 -25 3 -11 -1 -41 -9 -68
-9 -31 -17 -122 -21 -238 l-7 -189 26 -35 c14 -19 33 -52 42 -72 11 -27 20
-35 32 -31 12 4 10 -2 -7 -20 l-25 -27 21 -38 c12 -20 24 -51 27 -68 4 -17 22
-46 41 -64 34 -33 47 -81 26 -94 -4 -3 -56 7 -115 22 -104 26 -107 28 -102 52
3 14 13 90 23 169 13 116 14 153 5 188 -8 28 -10 82 -6 156 4 74 2 127 -5 155
-9 31 -9 47 -1 56 14 18 42 113 39 134 -1 9 4 36 11 60 12 39 12 44 -8 65 -11
12 -24 36 -28 52 -13 54 -41 83 -99 101 -57 18 -76 45 -50 71 14 13 19 29 45
133 29 115 -69 190 -167 130 -34 -20 -38 -31 -47 -115 -4 -34 -1 -59 9 -79 8
-15 15 -33 15 -38 0 -22 -44 -70 -81 -88 -51 -27 -68 -54 -81 -136 -10 -64 -8
-72 22 -161 28 -81 32 -102 26 -156 -3 -34 -10 -107 -15 -162 -5 -55 -12 -114
-16 -131 -4 -20 -3 -34 4 -38 20 -13 12 -118 -28 -356 -22 -129 -47 -293 -56
-365 -10 -71 -22 -134 -26 -140 -5 -5 -9 0 -9 13 0 28 42 318 74 507 13 77 23
159 22 182 -1 24 1 43 5 43 3 0 9 21 12 47 4 34 1 53 -9 64 -11 13 -13 26 -5
60 5 24 12 72 15 106 8 69 4 74 -59 83 -37 5 -40 7 -43 41 -3 34 -1 36 36 47
71 22 82 59 46 168 -13 41 -24 85 -24 97 0 12 -9 47 -19 77 -19 58 -44 80 -92
80 -31 0 -98 48 -99 71 0 9 10 39 21 67 19 46 20 58 10 114 -8 47 -17 69 -36
86 -50 43 -128 18 -144 -46 -23 -91 -23 -99 3 -157 14 -30 26 -62 26 -69 0
-22 -87 -96 -113 -96 -50 0 -57 -16 -64 -150 -8 -174 1 -255 35 -289 15 -14
26 -29 25 -32 -4 -14 -12 -228 -15 -404 l-3 -190 32 -3 32 -3 -1 -142 c0 -78
5 -162 10 -187 6 -24 10 -45 9 -46 -2 -2 -135 72 -229 128 -66 39 -68 42 -68
79 0 22 7 51 16 64 10 15 18 58 21 119 5 86 8 96 25 96 10 0 32 7 48 15 28 15
30 14 46 -10 25 -38 37 -20 30 41 -3 30 -2 84 3 122 5 37 12 129 15 204 3 113
2 138 -9 138 -32 0 -40 43 -42 228 -2 212 -5 235 -38 250 -19 9 -25 19 -25 42
0 38 -34 61 -101 68 -27 2 -49 8 -49 13 0 5 13 22 30 37 49 47 59 102 24 142
-7 8 -17 27 -23 43 -13 33 -66 67 -104 67 -55 0 -117 -59 -117 -112 0 -9 -23
-18 -66 -26 -36 -7 -79 -19 -94 -27 -16 -8 -36 -15 -45 -15 -45 0 -245 -178
-245 -219 0 -11 14 -28 35 -41 40 -25 41 -27 18 -52 -9 -10 -14 -20 -12 -21 2
-2 38 -24 80 -50 42 -26 82 -54 89 -62 7 -8 20 -15 29 -15 24 -1 66 -36 52
-44 -17 -11 -13 -44 6 -54 15 -9 15 -16 3 -71 -7 -33 -10 -75 -6 -93 4 -23 3
-29 -4 -18 -6 10 -10 11 -10 3 0 -22 -15 -14 -33 16 -24 40 -21 51 11 52 l27
2 -27 4 c-23 4 -28 10 -29 36 -2 29 -2 29 -6 6 -5 -35 -52 -48 -54 -15 -2 19
-2 19 -6 -2 -3 -17 -9 -21 -22 -17 -10 3 -31 1 -46 -5 -36 -14 -65 -4 -66 23
-1 20 -2 20 -8 -3 -8 -28 -32 -34 -43 -10 -5 12 -7 12 -7 -2 -1 -10 -6 -18
-12 -18 -7 0 -9 19 -4 58 l7 59 -58 16 c-32 9 -58 16 -59 14 -1 -1 -8 -44 -16
-96 l-14 -94 -73 112 c-305 470 -470 931 -528 1475 -19 181 -14 559 10 728 55
384 152 701 315 1025 l60 120 338 6 c305 6 526 18 848 47 295 27 610 63 700
80 55 10 123 21 150 25 268 33 722 120 1055 201 552 135 1265 374 1710 572 25
12 48 21 51 21 4 1 44 -32 90 -73z m731 -206 c7 0 33 5 57 11 24 5 46 8 48 5
2 -2 -7 -26 -21 -53 l-25 -50 31 -53 30 -53 -60 6 -60 6 -40 -43 c-44 -48 -46
-47 -57 27 -7 43 -9 46 -61 69 -29 13 -54 26 -54 29 0 3 18 14 40 24 54 24 60
34 67 99 l6 56 43 -40 c24 -22 49 -40 56 -40z m-5555 -90 c29 -14 53 -28 53
-31 0 -3 -22 -16 -50 -29 -46 -22 -50 -26 -55 -69 -11 -78 -12 -78 -58 -33
l-42 41 -53 -11 c-29 -6 -55 -8 -58 -5 -3 3 6 27 20 54 l25 50 -30 52 -30 53
63 -7 63 -7 40 42 40 41 10 -58 c10 -57 11 -58 62 -83z m6044 -630 l61 0 -38
-46 -38 -47 16 -58 c9 -33 13 -59 9 -59 -3 0 -28 9 -56 19 l-50 19 -40 -27
c-69 -47 -65 -48 -62 20 l2 62 -42 31 c-23 17 -42 34 -42 37 -1 4 25 15 56 25
51 17 58 23 70 59 7 22 16 46 18 54 4 10 18 -3 41 -37 l35 -52 60 0z m-6462
-55 c28 -4 53 -10 56 -14 2 -4 -16 -24 -40 -44 l-43 -36 5 -62 6 -61 -52 33
-53 32 -49 -23 c-27 -13 -52 -21 -55 -18 -3 4 -1 23 5 45 16 57 14 66 -24 110
-19 23 -35 44 -35 47 0 3 26 6 57 8 l57 3 31 52 30 52 27 -58 c26 -58 27 -59
77 -66z m6716 -754 l58 -14 -48 -41 -48 -42 5 -57 c3 -31 3 -57 1 -57 -3 0
-25 14 -51 32 l-46 32 -58 -22 c-53 -19 -59 -19 -54 -4 3 9 10 36 17 59 11 40
11 43 -25 86 -36 44 -36 45 -14 51 13 3 39 6 59 6 33 0 40 5 70 51 l32 51 22
-58 22 -59 58 -14z m-7054 38 l34 -51 58 4 c31 3 57 2 57 -2 0 -3 -14 -25 -32
-49 l-31 -43 16 -52 c10 -29 17 -55 17 -59 0 -3 -25 3 -54 13 l-55 19 -45 -35
c-25 -19 -47 -34 -50 -34 -3 0 -6 26 -6 59 l0 58 -51 36 -51 35 60 17 59 17
17 59 c9 32 18 59 19 59 2 0 19 -23 38 -51z m7058 -819 c1 -32 6 -38 57 -66
l56 -31 -55 -24 c-52 -22 -56 -27 -62 -64 -13 -82 -13 -81 -60 -35 l-43 42
-57 -7 c-32 -4 -56 -4 -54 1 3 5 15 30 28 55 l23 45 -27 54 -27 53 29 -6 c102
-20 95 -21 138 23 39 40 40 40 47 18 3 -13 7 -39 7 -58z m-7036 -24 c29 8 55
14 59 14 4 0 -3 -24 -16 -54 l-24 -55 29 -46 c16 -25 29 -48 29 -50 0 -3 -27
-5 -60 -5 -57 0 -60 -1 -91 -40 -18 -22 -35 -40 -39 -40 -4 0 -12 25 -19 56
-9 41 -18 57 -34 63 -12 5 -38 15 -57 23 l-35 15 53 32 52 33 0 52 c0 29 3 56
6 59 4 3 26 -11 51 -32 l44 -39 52 14z m6922 -780 l-7 -63 41 -33 c23 -19 41
-37 41 -41 0 -4 -19 -10 -42 -14 -62 -10 -74 -20 -93 -70 -10 -25 -21 -45 -26
-45 -4 0 -20 23 -35 50 l-27 50 -52 0 c-28 0 -55 3 -59 7 -3 4 12 25 34 48
l41 41 -12 52 c-7 29 -10 54 -7 58 3 3 24 -4 47 -15 52 -27 57 -26 111 9 25
16 46 29 48 29 2 1 1 -28 -3 -63z m-6901 -12 l47 -26 50 27 c28 15 53 25 55
22 3 -3 1 -29 -5 -58 l-10 -54 46 -42 c51 -47 54 -43 -40 -58 -33 -5 -40 -12
-65 -61 l-28 -55 -26 55 c-26 52 -29 55 -75 62 -26 3 -52 9 -56 11 -5 3 9 24
32 47 38 39 40 43 31 81 -10 42 -13 75 -6 75 2 0 25 -12 50 -26z m1470 -369
c36 -24 33 -39 -5 -31 -40 8 -67 -8 -85 -49 l-14 -33 -107 0 -107 0 60 57 c57
55 63 58 123 64 71 6 84 13 59 31 -17 12 -16 14 5 23 19 9 24 6 34 -18 6 -15
23 -35 37 -44z m2069 -126 c24 -52 25 -60 16 -124 -5 -38 -11 -70 -12 -72 -2
-1 -18 32 -36 75 -18 42 -39 87 -47 99 -21 33 -91 66 -125 59 -19 -4 -29 -1
-33 11 -4 9 -5 17 -3 19 1 1 40 8 86 13 46 6 86 13 89 16 8 7 37 -36 65 -96z
m15 90 c-2 -6 -8 -10 -13 -10 -5 0 -11 4 -13 10 -2 6 4 11 13 11 9 0 15 -5 13
-11z m-409 -45 c-12 -11 -24 -13 -45 -7 l-29 7 35 7 c55 10 55 10 39 -7z
m1825 -132 c-25 -16 -46 -77 -48 -138 -1 -44 -7 -69 -19 -82 -10 -11 -17 -25
-15 -32 2 -7 -2 -14 -8 -17 -7 -2 -10 6 -6 22 2 15 11 29 18 32 9 3 14 22 14
57 0 81 32 166 63 166 8 0 9 -2 1 -8z m-3691 -81 c18 -7 26 -19 29 -45 2 -20
1 -36 -2 -36 -3 0 -28 23 -55 51 -46 47 -48 51 -23 45 15 -3 38 -10 51 -15z
m5188 -52 l36 -28 51 16 c29 9 54 14 57 11 3 -3 -3 -28 -13 -56 l-20 -51 35
-48 34 -48 -63 -3 c-62 -3 -64 -4 -97 -50 l-35 -46 -16 59 c-16 58 -17 59 -70
77 -29 10 -55 20 -57 22 -2 2 19 18 47 36 l50 32 0 60 c0 65 -1 65 61 17z
m-6011 -52 l0 -52 53 -32 52 -32 -57 -25 c-56 -25 -56 -25 -68 -83 l-12 -58
-42 48 -41 48 -58 -7 c-31 -4 -57 -4 -57 0 0 4 14 27 30 52 l31 44 -22 50
c-12 28 -20 53 -17 55 3 3 28 0 56 -6 51 -12 51 -12 94 23 24 20 46 34 51 31
4 -2 7 -28 7 -56z m1329 -136 c7 -12 10 -25 8 -27 -12 -13 -37 64 -36 110 l2
51 7 -55 c4 -31 12 -66 19 -79z m-464 79 c3 -5 4 -14 0 -20 -8 -13 -35 -1 -35
16 0 16 26 19 35 4z m1731 -18 c6 -15 7 -37 3 -47 -4 -11 -8 -50 -8 -86 -1
-63 -3 -68 -41 -107 -22 -22 -40 -49 -40 -59 1 -15 5 -13 23 10 13 15 26 27
30 27 4 0 7 -30 7 -66 0 -56 -3 -68 -22 -84 -20 -16 -25 -16 -45 -3 -20 13
-23 24 -23 73 0 140 48 354 77 343 7 -3 13 2 13 11 0 25 15 19 26 -12z m387
-17 c-17 -52 -28 -60 -19 -13 5 27 22 58 32 58 1 0 -4 -20 -13 -45z m1402 -23
c-21 -42 -38 -168 -30 -229 5 -45 11 -56 31 -63 29 -11 32 -48 8 -105 -14 -35
-12 -76 4 -61 4 4 12 -63 18 -149 9 -128 14 -159 28 -167 13 -7 16 -26 16 -96
0 -48 7 -112 15 -142 18 -66 17 -60 6 -60 -5 0 -11 14 -15 32 -3 17 -27 76
-52 131 -25 56 -47 119 -49 141 -2 23 -10 79 -19 126 -13 68 -15 128 -11 300
3 118 9 242 15 275 5 33 10 61 10 62 0 3 31 33 35 33 2 0 -3 -12 -10 -28z
m-3038 -84 c-3 -8 -6 -5 -6 6 -1 11 2 17 5 13 3 -3 4 -12 1 -19z m-630 -33
c-3 -21 -2 -33 4 -30 5 4 9 19 9 36 0 19 5 29 15 29 8 0 15 -6 15 -12 0 -7 7
-25 14 -40 l15 -28 -54 0 c-29 0 -61 -3 -70 -6 -13 -5 -15 -2 -10 22 6 27 5
26 -11 -6 -16 -32 -18 -33 -21 -12 -3 12 -8 22 -13 22 -4 0 -6 -9 -3 -20 4
-17 0 -20 -23 -20 -16 0 -46 -3 -67 -7 l-39 -6 3 44 c3 41 12 58 32 59 4 0 8
-17 8 -37 l2 -38 6 35 c9 50 41 54 41 5 0 -19 4 -35 8 -35 4 0 6 15 4 34 -4
38 2 41 97 45 l44 1 -6 -35z m2589 -32 c-3 -21 -8 -56 -11 -78 -8 -50 -15 -58
-15 -17 0 17 -4 33 -8 36 -8 5 27 96 37 96 2 0 1 -17 -3 -37z m454 -84 c-15
-34 -35 -39 -26 -6 3 12 6 38 6 57 l1 35 15 -28 c13 -24 13 -34 4 -58z m-2979
29 l2 -33 6 35 c4 23 9 31 14 22 5 -7 13 -10 18 -7 5 4 9 -1 9 -9 0 -8 5 -18
11 -22 8 -4 9 1 4 16 -6 20 -5 21 15 10 14 -8 19 -17 15 -28 -4 -9 -9 -38 -12
-64 -5 -41 -9 -48 -28 -48 -12 0 -43 -3 -67 -6 -44 -6 -46 -5 -43 17 1 13 0
17 -2 8 -2 -9 -15 -19 -29 -22 -19 -3 -24 0 -25 17 -2 20 -2 20 -6 -1 -3 -13
-10 -20 -18 -17 -7 3 -30 1 -50 -5 -45 -12 -65 -5 -65 23 0 15 -3 17 -9 8 -11
-18 -51 37 -51 70 0 21 7 26 51 36 74 17 100 16 93 -5 -4 -14 -2 -13 7 2 13
19 13 19 20 -5 l7 -25 1 27 c1 25 5 27 49 31 26 2 55 4 65 5 13 2 17 -6 18
-30z m4339 -18 c0 -16 -4 -30 -10 -30 -11 0 -14 43 -3 53 11 12 13 8 13 -23z
m-3796 -17 c-9 -52 -14 -54 -14 -5 0 23 5 42 10 42 7 0 8 -14 4 -37z m3641
-223 c32 -220 30 -272 -11 -305 -48 -39 -85 -58 -78 -42 3 8 -2 20 -11 27 -9
8 -12 17 -6 24 4 6 11 65 14 131 4 66 15 156 26 200 11 44 22 97 26 119 3 21
8 36 9 35 2 -2 16 -87 31 -189z m-4094 103 c11 -12 14 -55 14 -174 l0 -158
-35 32 c-19 18 -76 71 -126 120 -73 70 -87 87 -69 87 12 0 37 3 54 6 30 6 31
5 32 -27 l2 -34 6 35 c4 23 9 31 14 22 5 -7 13 -10 18 -7 5 4 9 -1 9 -9 0 -8
5 -18 11 -22 9 -5 10 1 5 20 -6 25 -4 26 31 27 l38 2 -39 6 c-26 4 -42 13 -47
26 -7 19 -8 19 -8 -2 -1 -33 -16 -28 -35 11 -21 45 -21 44 17 49 71 9 95 7
108 -10z m-190 -25 l1 -33 7 29 c7 33 31 48 31 19 0 -10 7 -29 16 -41 15 -21
14 -22 -13 -23 -15 0 -44 -2 -63 -3 -28 -2 -42 4 -73 33 l-38 36 28 6 c15 4
45 7 66 8 35 1 37 -1 38 -31z m4863 -95 l37 -48 61 3 c49 3 59 1 52 -10 -4 -7
-18 -30 -32 -52 l-24 -38 21 -51 c12 -27 19 -52 17 -55 -3 -2 -28 3 -57 11
l-53 16 -48 -41 -48 -40 0 60 0 60 -51 32 c-27 18 -47 36 -42 40 4 4 29 15 54
25 46 16 47 18 59 76 7 32 14 59 15 59 1 0 19 -21 39 -47z m-5012 -112 c26 -9
49 -19 52 -22 3 -3 -14 -20 -39 -38 -43 -31 -44 -33 -47 -91 l-3 -60 -48 34
-48 34 -55 -18 c-30 -11 -54 -16 -54 -13 0 4 7 30 17 59 l16 52 -31 40 c-18
22 -32 43 -32 46 0 3 25 6 55 6 55 0 55 0 92 51 l36 51 21 -58 c20 -54 24 -58
68 -73z m2753 99 c-3 -5 -11 -10 -16 -10 -6 0 -7 5 -4 10 3 6 11 10 16 10 6 0
7 -4 4 -10z m1880 -90 c-32 -32 -62 -57 -67 -54 -4 3 -8 19 -8 36 0 29 2 30
30 24 24 -4 37 0 63 24 54 50 45 33 -18 -30z m-2211 -34 c-3 -17 -13 -44 -21
-60 -19 -36 -20 -166 -1 -195 7 -12 27 -28 43 -36 17 -8 40 -24 51 -36 19 -22
19 -22 -1 -15 -11 4 -54 17 -95 28 l-76 20 8 77 c10 95 13 111 45 193 18 47
30 65 40 61 10 -4 12 -14 7 -37z m525 -88 c0 -24 4 -97 9 -163 5 -66 6 -130 1
-141 -4 -12 -5 -32 -2 -43 6 -23 11 -23 -78 -6 -32 6 -37 4 -42 -17 -14 -49
-9 -55 50 -70 52 -13 58 -16 66 -48 8 -32 7 -51 -9 -143 -4 -24 -2 -43 6 -52
7 -9 11 -17 9 -19 -5 -5 -223 -36 -227 -32 -1 2 4 16 13 32 8 16 15 39 15 52
0 93 156 692 180 692 4 0 8 -19 9 -42z m-251 -135 c-20 -76 -23 -80 -34 -58
-11 21 -8 32 19 84 18 33 33 59 34 57 1 -1 -7 -38 -19 -83z m-1442 40 c-3 -21
-8 -85 -12 -143 -4 -58 -10 -96 -12 -86 -8 35 10 266 20 266 6 0 7 -16 4 -37z
m-699 -15 c-3 -7 -5 -2 -5 12 0 14 2 19 5 13 2 -7 2 -19 0 -25z m1092 -306 l1
-223 68 2 c37 0 80 -4 95 -10 16 -6 57 -11 93 -11 49 0 64 3 64 15 0 18 -31
35 -63 35 -13 0 -34 11 -47 25 -13 14 -20 25 -16 25 5 0 -6 16 -23 35 -21 24
-30 43 -27 58 3 12 10 81 17 153 6 72 14 136 18 142 5 8 26 6 71 -8 35 -11 84
-22 108 -26 32 -5 46 -12 52 -28 4 -13 11 -129 15 -260 l8 -237 -54 6 c-86 10
-392 73 -464 96 -36 11 -65 24 -65 29 0 6 5 10 11 10 6 0 8 9 4 20 -4 11 -2
20 4 20 6 0 11 17 11 38 0 21 11 74 23 118 13 43 37 131 53 194 l29 115 7 -55
c3 -30 6 -155 7 -278z m2387 270 c-11 -10 -14 3 -8 33 l7 30 3 -28 c2 -16 1
-31 -2 -35z m-354 -112 c28 -47 66 -107 85 -133 19 -27 33 -50 31 -52 -5 -4
-128 -60 -165 -75 -43 -16 -103 -6 -103 19 0 9 9 60 20 111 11 51 20 105 20
119 0 53 19 97 41 97 16 0 33 -22 71 -86z m815 -115 c26 -4 52 -9 56 -12 5 -3
-10 -24 -33 -48 l-41 -42 9 -54 c6 -30 9 -55 7 -57 -1 -2 -25 9 -53 25 l-50
28 -56 -27 c-31 -15 -56 -26 -56 -25 0 2 5 30 11 62 l11 58 -42 42 -41 42 32
7 c17 3 44 6 58 6 23 0 31 9 55 57 l28 58 29 -56 c27 -54 30 -57 76 -64z
m-3926 -6 c8 -5 35 -9 62 -9 26 0 47 -3 47 -7 0 -4 -17 -24 -37 -45 l-36 -37
12 -56 c7 -31 11 -58 9 -61 -3 -2 -27 6 -55 18 l-51 21 -52 -32 -53 -33 6 64
6 63 -44 34 c-44 35 -49 51 -17 51 41 0 91 22 98 42 3 12 13 37 21 56 l15 35
28 -47 c15 -27 34 -52 41 -57z m1917 50 l157 -41 -6 -102 c-7 -99 -29 -209
-51 -253 -11 -22 -17 -23 -137 -23 l-126 0 0 230 c-1 127 1 230 2 230 2 0 75
-18 161 -41z m-1261 -171 c-2 -13 -4 -5 -4 17 -1 22 1 32 4 23 2 -10 2 -28 0
-40z m2493 -194 c12 -55 13 -56 68 -81 l57 -25 -52 -31 c-50 -30 -51 -32 -57
-89 l-7 -59 -39 31 c-22 17 -42 35 -45 40 -3 4 -29 2 -58 -6 -28 -7 -55 -14
-59 -14 -4 0 3 25 17 56 l24 55 -22 37 c-13 20 -27 43 -31 50 -7 11 3 13 52
10 61 -3 61 -3 97 40 20 23 38 42 40 42 2 0 9 -25 15 -56z m-2390 -34 c74 15
74 14 42 -42 l-30 -53 23 -45 c35 -66 34 -68 -30 -57 l-56 10 -44 -43 -44 -43
-6 39 c-13 81 -14 83 -65 109 -28 14 -50 27 -50 30 0 2 22 14 50 26 52 22 55
27 66 102 l7 49 46 -45 c45 -45 47 -45 91 -37z m1620 -178 c0 -58 0 -59 46
-92 25 -18 42 -36 37 -40 -4 -4 -29 -13 -55 -20 -46 -12 -48 -15 -65 -66 -9
-30 -20 -54 -24 -54 -4 0 -20 20 -36 45 l-28 45 -63 0 -63 0 36 46 c40 53 40
56 20 114 -8 24 -13 45 -11 47 2 3 29 -3 59 -13 l55 -17 39 31 c21 17 41 31
46 32 4 0 7 -26 7 -58z m-941 19 l44 -30 51 20 c27 11 54 23 59 26 5 3 7 -3 4
-13 -32 -111 -33 -98 7 -147 20 -24 36 -47 36 -51 0 -3 -26 -6 -58 -6 l-58 0
-29 -49 c-16 -28 -32 -48 -36 -46 -4 3 -15 27 -25 55 -18 50 -18 50 -77 62
l-60 13 48 42 48 42 -7 55 c-3 31 -3 56 1 56 5 0 28 -13 52 -29z"/>
<path d="M3485 6469 c-4 -6 -5 -12 -2 -15 2 -3 7 2 10 11 7 17 1 20 -8 4z"/>
<path d="M3380 6445 c0 -5 5 -17 10 -25 5 -8 10 -10 10 -5 0 6 -5 17 -10 25
-5 8 -10 11 -10 5z"/>
<path d="M1621 1794 c0 -11 3 -14 6 -6 3 7 2 16 -1 19 -3 4 -6 -2 -5 -13z"/>
</g>
</svg>
