<?xml version="1.0" standalone="no"?>
<!DOCTYPE svg PUBLIC "-//W3C//DTD SVG 20010904//EN"
 "http://www.w3.org/TR/2001/REC-SVG-20010904/DTD/svg10.dtd">
<svg version="1.0" xmlns="http://www.w3.org/2000/svg"
 width="152.000000pt" height="254.000000pt" viewBox="0 0 152.000000 254.000000"
 preserveAspectRatio="xMidYMid meet">

<g transform="translate(0.000000,254.000000) scale(0.100000,-0.100000)"
fill="#000000" stroke="none">
<path d="M701 2344 c0 -11 3 -14 6 -6 3 7 2 16 -1 19 -3 4 -6 -2 -5 -13z"/>
<path d="M851 2334 c0 -11 3 -14 6 -6 3 7 2 16 -1 19 -3 4 -6 -2 -5 -13z"/>
<path d="M710 2302 c0 -4 -16 -14 -36 -21 -19 -7 -34 -15 -31 -17 7 -7 77 26
77 36 0 6 -2 10 -5 10 -3 0 -5 -4 -5 -8z"/>
<path d="M885 2299 c11 -7 37 -25 58 -42 21 -16 62 -42 92 -57 47 -24 53 -25
44 -9 -5 10 -18 19 -28 19 -10 0 -46 20 -78 44 -33 24 -71 47 -84 50 -22 6
-23 6 -4 -5z"/>
<path d="M800 2290 c0 -5 5 -10 11 -10 5 0 7 5 4 10 -3 6 -8 10 -11 10 -2 0
-4 -4 -4 -10z"/>
<path d="M838 2293 c7 -3 16 -2 19 1 4 3 -2 6 -13 5 -11 0 -14 -3 -6 -6z"/>
<path d="M600 2259 c-7 -11 -9 -23 -6 -27 3 -3 6 0 6 6 0 6 7 18 16 26 8 9 11
16 5 16 -6 0 -15 -9 -21 -21z"/>
<path d="M526 2236 c4 -9 -5 -20 -23 -29 -15 -9 -27 -18 -25 -21 7 -17 -2 -32
-48 -81 -28 -29 -64 -59 -81 -65 -36 -15 -32 -25 4 -11 38 15 106 79 128 122
10 21 28 43 39 49 21 11 27 35 10 45 -5 3 -7 0 -4 -9z"/>
<path d="M704 2219 c-145 -77 -250 -174 -301 -277 l-28 -57 -3 -556 c-2 -537
-2 -559 18 -610 40 -107 143 -211 303 -306 l79 -46 46 22 c144 70 265 176 322
281 l35 65 0 570 0 570 -28 58 c-37 75 -118 161 -209 224 -73 50 -149 93 -166
93 -5 0 -36 -14 -68 -31z m252 -103 c85 -65 158 -153 184 -224 20 -53 21 -73
18 -601 -2 -446 -6 -551 -17 -573 -18 -36 -24 -35 -43 6 -20 41 -73 103 -102
117 -11 6 -4 -3 17 -21 41 -35 97 -123 97 -154 0 -10 -35 -54 -79 -97 l-79
-79 -86 0 -86 0 1 218 c0 157 3 211 11 197 5 -11 27 -33 47 -50 20 -16 28 -20
18 -9 -23 28 -11 36 29 19 21 -8 36 -10 40 -4 3 5 2 8 -3 7 -12 -4 -120 51
-134 68 -9 11 -9 18 1 29 8 10 9 19 3 28 -15 20 -14 64 2 71 8 3 15 11 15 17
0 7 -12 -1 -26 -16 -14 -15 -23 -34 -19 -42 3 -9 0 -22 -6 -29 -9 -11 -8 -18
2 -30 12 -14 9 -20 -16 -40 -17 -13 -33 -24 -37 -24 -4 0 -9 46 -11 103 l-3
102 -2 -108 c-2 -107 -2 -108 -29 -119 -16 -6 -32 -10 -36 -9 -5 1 -6 -3 -2
-9 4 -6 17 -5 36 5 41 22 56 9 27 -24 -23 -26 -23 -26 8 2 17 15 34 24 39 20
4 -5 5 -2 1 5 -4 6 -3 12 2 12 5 0 14 10 20 22 8 17 11 -31 11 -194 l1 -218
-35 0 c-33 0 -35 2 -37 38 l-1 37 -4 -38 c-4 -36 -6 -37 -43 -37 -31 0 -49 9
-99 51 -33 29 -63 60 -66 70 -4 11 -10 19 -15 19 -5 0 -14 9 -20 20 -13 25 7
76 56 139 l36 46 -41 -45 c-22 -24 -46 -57 -52 -72 -16 -39 -25 -35 -43 19
-23 67 -24 1073 -1 1148 32 109 147 227 294 304 l76 40 56 -30 c30 -16 86 -54
125 -83z m-61 -1656 c-8 -13 -215 -13 -235 0 -10 7 27 10 113 10 83 0 126 -4
122 -10z m-65 -40 c-8 -5 -31 -10 -50 -10 -19 0 -42 5 -50 10 -11 7 4 10 50
10 46 0 61 -3 50 -10z"/>
<path d="M647 2064 c-11 -11 -8 -54 3 -54 6 0 9 -20 8 -47 -2 -33 -10 -54 -25
-69 -13 -13 -23 -29 -23 -36 1 -7 7 -1 15 13 29 53 68 47 96 -15 10 -23 19
-34 19 -26 0 18 -37 80 -47 80 -5 0 -9 23 -9 50 0 28 3 50 8 50 4 0 8 5 8 11
0 8 -4 8 -15 -1 -18 -15 -35 -5 -35 21 0 20 34 27 43 9 3 -6 4 -5 3 2 -3 14
-38 23 -49 12z m33 -124 c0 -5 -4 -10 -10 -10 -5 0 -10 5 -10 10 0 6 5 10 10
10 6 0 10 -4 10 -10z"/>
<path d="M851 2056 c-12 -14 -5 -46 9 -46 17 0 3 -91 -17 -113 -32 -34 -37
-65 -18 -107 16 -36 16 -39 -4 -78 -12 -23 -21 -55 -21 -72 0 -16 -4 -30 -10
-30 -6 0 -9 -21 -8 -47 l1 -48 4 43 4 42 89 0 89 0 4 -42 4 -43 1 48 c1 26 -2
47 -8 47 -5 0 -10 15 -10 33 0 17 -9 47 -20 65 -22 35 -26 67 -10 77 6 3 10
12 10 18 0 7 -9 -1 -19 -17 -19 -28 -19 -29 5 -74 13 -25 24 -58 24 -73 0 -28
-2 -29 -49 -29 -49 0 -50 1 -54 33 l-4 32 -1 -32 c-1 -22 -7 -33 -17 -33 -23
0 -19 49 8 103 24 46 24 46 5 76 -23 35 -18 79 12 106 24 22 56 12 75 -23 8
-15 14 -21 15 -14 0 7 -10 23 -22 36 -26 25 -34 88 -17 123 7 12 9 29 6 37 -8
20 -41 21 -56 2z m49 -15 c0 -27 -19 -36 -37 -18 -18 18 -9 37 18 37 12 0 19
-7 19 -19z m-10 -101 c0 -5 -4 -10 -10 -10 -5 0 -10 5 -10 10 0 6 5 10 10 10
6 0 10 -4 10 -10z"/>
<path d="M610 1805 c1 -5 7 -18 15 -29 13 -17 11 -23 -10 -61 -14 -23 -25 -56
-25 -73 0 -18 -4 -32 -10 -32 -6 0 -9 -21 -8 -47 l1 -48 4 43 4 42 89 0 89 0
4 -42 4 -43 1 48 c1 26 -2 47 -8 47 -5 0 -10 14 -10 30 0 17 -9 49 -21 72 -17
33 -19 46 -10 65 17 36 13 41 -8 10 -18 -27 -17 -29 6 -74 26 -53 31 -103 9
-103 -9 0 -16 13 -19 33 l-4 32 -1 -32 c-2 -33 -3 -33 -52 -33 -48 0 -50 1
-50 29 0 15 11 48 24 73 24 45 24 46 5 74 -10 16 -19 25 -19 19z"/>
<path d="M592 1403 c-1 -74 -6 -123 -12 -123 -16 0 -12 -137 5 -170 9 -17 18
-30 21 -30 2 0 -2 13 -11 30 -17 33 -21 156 -5 162 7 2 10 48 7 128 l-3 125
-2 -122z"/>
<path d="M742 1398 c-2 -108 0 -128 13 -128 12 0 15 -14 15 -69 0 -52 -4 -70
-15 -75 -8 -3 -15 -10 -15 -16 0 -6 7 -4 16 4 8 9 17 16 19 16 2 0 11 -7 19
-16 9 -8 16 -10 16 -4 0 6 -7 13 -15 16 -11 5 -15 23 -15 75 0 55 3 69 15 69
13 0 15 20 13 128 l-2 127 -3 -122 c-4 -123 -4 -123 -28 -123 -24 0 -24 0 -28
123 l-3 122 -2 -127z"/>
<path d="M952 1398 c-1 -80 2 -128 8 -128 16 0 12 -127 -5 -161 -20 -38 -18
-251 3 -255 7 -1 8 0 2 3 -16 8 -12 223 5 253 16 28 21 170 5 170 -5 0 -11 52
-13 123 l-3 122 -2 -127z"/>
<path d="M656 1472 c-2 -4 4 -8 14 -8 10 0 16 4 14 8 -3 4 -9 8 -14 8 -5 0
-11 -4 -14 -8z"/>
<path d="M865 1470 c-3 -6 1 -7 9 -4 18 7 21 14 7 14 -6 0 -13 -4 -16 -10z"/>
<path d="M530 1440 c0 -6 7 -10 15 -10 8 0 15 2 15 4 0 2 -7 6 -15 10 -8 3
-15 1 -15 -4z"/>
<path d="M644 1360 c0 -52 1 -74 3 -47 2 26 2 68 0 95 -2 26 -3 4 -3 -48z"/>
<path d="M694 1360 c0 -52 1 -74 3 -47 2 26 2 68 0 95 -2 26 -3 4 -3 -48z"/>
<path d="M851 1434 c0 -11 3 -14 6 -6 3 7 2 16 -1 19 -3 4 -6 -2 -5 -13z"/>
<path d="M990 1440 c0 -6 7 -10 15 -10 8 0 15 2 15 4 0 2 -7 6 -15 10 -8 3
-15 1 -15 -4z"/>
<path d="M426 1428 c3 -4 9 -8 15 -8 5 0 9 4 9 8 0 5 -7 9 -15 9 -8 0 -12 -4
-9 -9z"/>
<path d="M903 1350 c0 -47 2 -66 4 -42 2 23 2 61 0 85 -2 23 -4 4 -4 -43z"/>
<path d="M663 1205 c0 -38 2 -53 4 -32 2 20 2 52 0 70 -2 17 -4 1 -4 -38z"/>
<path d="M640 1216 c0 -30 -4 -35 -27 -39 -26 -4 -26 -4 5 -6 31 -1 32 0 32
39 0 22 -2 40 -5 40 -3 0 -5 -15 -5 -34z"/>
<path d="M750 1216 c0 -33 -2 -35 -37 -39 l-38 -4 43 -1 42 -2 0 40 c0 22 -2
40 -5 40 -3 0 -5 -15 -5 -34z"/>
<path d="M808 1173 c12 -2 32 -2 45 0 12 2 2 4 -23 4 -25 0 -35 -2 -22 -4z"/>
<path d="M913 1173 c9 -2 25 -2 35 0 9 3 1 5 -18 5 -19 0 -27 -2 -17 -5z"/>
<path d="M578 854 c-38 -20 -36 -28 2 -9 17 9 30 18 30 20 0 7 -1 6 -32 -11z"/>
<path d="M920 815 c13 -14 26 -25 28 -25 3 0 -5 11 -18 25 -13 14 -26 25 -28
25 -3 0 5 -11 18 -25z"/>
<path d="M554 798 l-29 -33 33 29 c30 28 37 36 29 36 -2 0 -16 -15 -33 -32z"/>
<path d="M980 805 c13 -14 26 -25 28 -25 3 0 -5 11 -18 25 -13 14 -26 25 -28
25 -3 0 5 -11 18 -25z"/>
<path d="M621 654 c0 -11 3 -14 6 -6 3 7 2 16 -1 19 -3 4 -6 -2 -5 -13z"/>
<path d="M921 654 c0 -11 3 -14 6 -6 3 7 2 16 -1 19 -3 4 -6 -2 -5 -13z"/>
<path d="M1001 614 c0 -11 3 -14 6 -6 3 7 2 16 -1 19 -3 4 -6 -2 -5 -13z"/>
<path d="M470 2220 c0 -5 7 -7 15 -4 8 4 15 8 15 10 0 2 -7 4 -15 4 -8 0 -15
-4 -15 -10z"/>
<path d="M1093 2200 c6 -16 13 -27 15 -25 7 7 -8 55 -17 55 -5 0 -4 -13 2 -30z"/>
<path d="M575 2210 c-3 -5 -1 -10 4 -10 6 0 11 5 11 10 0 6 -2 10 -4 10 -3 0
-8 -4 -11 -10z"/>
<path d="M1071 2146 c11 -9 69 -15 64 -6 -3 6 -20 10 -37 10 -17 0 -29 -2 -27
-4z"/>
<path d="M514 2118 l-19 -23 23 19 c12 11 22 21 22 23 0 8 -8 2 -26 -19z"/>
<path d="M1000 2136 c0 -2 8 -10 18 -17 15 -13 16 -12 3 4 -13 16 -21 21 -21
13z"/>
<path d="M1151 2114 c0 -11 3 -14 6 -6 3 7 2 16 -1 19 -3 4 -6 -2 -5 -13z"/>
<path d="M1179 2083 c-13 -16 -12 -17 4 -4 16 13 21 21 13 21 -2 0 -10 -8 -17
-17z"/>
<path d="M1112 2064 c9 -9 21 -15 27 -13 6 2 -2 10 -17 17 -25 11 -25 11 -10
-4z"/>
<path d="M444 2048 l-19 -23 23 19 c12 11 22 21 22 23 0 8 -8 2 -26 -19z"/>
<path d="M1090 2046 c0 -2 8 -10 18 -17 15 -13 16 -12 3 4 -13 16 -21 21 -21
13z"/>
<path d="M310 1953 c-11 -30 -15 -158 -18 -628 -3 -530 1 -706 14 -692 3 2 4
291 4 641 0 546 2 641 15 672 17 42 18 44 7 44 -5 0 -15 -17 -22 -37z"/>
<path d="M1210 1986 c0 -2 7 -20 15 -40 13 -31 15 -126 15 -672 0 -350 1 -639
4 -641 13 -14 17 162 14 692 -3 470 -7 598 -18 628 -7 20 -17 37 -22 37 -4 0
-8 -2 -8 -4z"/>
<path d="M345 1310 c0 -272 1 -384 2 -247 2 136 2 358 0 495 -1 136 -2 24 -2
-248z"/>
<path d="M480 548 c24 -27 45 -48 47 -48 8 0 0 9 -44 50 l-48 45 45 -47z"/>
<path d="M346 563 c-6 -14 -5 -15 5 -6 7 7 10 15 7 18 -3 3 -9 -2 -12 -12z"/>
<path d="M1059 533 l-34 -38 38 34 c34 33 42 41 34 41 -2 0 -19 -17 -38 -37z"/>
<path d="M1150 556 c0 -2 8 -10 18 -17 15 -13 16 -12 3 4 -13 16 -21 21 -21
13z"/>
<path d="M1125 480 c10 -11 20 -20 23 -20 3 0 -3 9 -13 20 -10 11 -20 20 -23
20 -3 0 3 -9 13 -20z"/>
<path d="M1030 406 c0 -2 8 -10 18 -17 15 -13 16 -12 3 4 -13 16 -21 21 -21
13z"/>
<path d="M545 374 c-9 -15 -12 -23 -6 -20 11 7 35 46 28 46 -3 0 -12 -12 -22
-26z"/>
<path d="M980 396 c0 -2 8 -10 18 -17 15 -13 16 -12 3 4 -13 16 -21 21 -21 13z"/>
<path d="M591 357 c-13 -21 -12 -21 5 -5 10 10 16 20 13 22 -3 3 -11 -5 -18
-17z"/>
<path d="M958 343 c7 -3 16 -2 19 1 4 3 -2 6 -13 5 -11 0 -14 -3 -6 -6z"/>
<path d="M820 291 c5 -11 15 -23 21 -27 6 -3 3 5 -6 20 -20 30 -30 35 -15 7z"/>
</g>
</svg>
